<?xml version="1.0" encoding="UTF-8"?><svg xmlns="http://www.w3.org/2000/svg" xmlns:xlink="http://www.w3.org/1999/xlink" viewBox="0 0 86.07 64.62"><defs><style>.cls-1{fill:url(#Nueva_muestra_de_degradado_11);}.cls-2{fill:url(#linear-gradient);}.cls-3{fill:#7c85f7;}.cls-4{opacity:.5;}.cls-4,.cls-5{fill:#201138;mix-blend-mode:soft-light;}.cls-6{fill:url(#Nueva_muestra_de_degradado_11-2);}.cls-7{fill:url(#linear-gradient-8);}.cls-8{fill:url(#linear-gradient-3);}.cls-9{fill:url(#linear-gradient-4);}.cls-10{fill:url(#linear-gradient-2);}.cls-11{fill:url(#linear-gradient-6);}.cls-12{fill:url(#linear-gradient-7);}.cls-13{fill:url(#linear-gradient-5);}.cls-14{isolation:isolate;}</style><linearGradient id="Nueva_muestra_de_degradado_11" x1="85.66" y1="27.19" x2="36.56" y2="74.18" gradientUnits="userSpaceOnUse"><stop offset="0" stop-color="#f17188"/><stop offset="1" stop-color="#82218a"/></linearGradient><linearGradient id="linear-gradient" x1="46.28" y1="21.19" x2="86.07" y2="21.19" gradientUnits="userSpaceOnUse"><stop offset=".04" stop-color="#6fbcf9"/><stop offset="1" stop-color="#9865fb"/></linearGradient><linearGradient id="linear-gradient-2" x1="46.27" y1="48.51" x2="79.12" y2="48.51" xlink:href="#linear-gradient"/><linearGradient id="Nueva_muestra_de_degradado_11-2" x1="310.03" y1="27.05" x2="261" y2="73.98" gradientTransform="translate(310.57) rotate(-180) scale(1 -1)" xlink:href="#Nueva_muestra_de_degradado_11"/><linearGradient id="linear-gradient-3" x1="270.78" x2="310.57" gradientTransform="translate(310.57) rotate(-180) scale(1 -1)" xlink:href="#linear-gradient"/><linearGradient id="linear-gradient-4" x1="6.95" y1="48.51" x2="39.79" y2="48.51" xlink:href="#linear-gradient"/><linearGradient id="linear-gradient-5" x1="-178.34" y1="-5.09" x2="-155.48" y2="-5.09" gradientTransform="translate(29.39 199.81) rotate(90)" xlink:href="#linear-gradient"/><linearGradient id="linear-gradient-6" x1="-172.19" y1="-1911.41" x2="-161.62" y2="-1911.41" gradientTransform="translate(2581.44 199.81) rotate(90) scale(1 -1.32)" xlink:href="#linear-gradient"/><linearGradient id="linear-gradient-7" x1="1938.99" y1="32.91" x2="1943.08" y2="32.91" gradientTransform="translate(2620.25) rotate(-180) scale(1.32 -1)" xlink:href="#linear-gradient"/><linearGradient id="linear-gradient-8" x1="-166.81" y1="-1912.43" x2="-166.81" y2="-1922.02" gradientTransform="translate(2581.44 199.81) rotate(90) scale(1 -1.32)" xlink:href="#linear-gradient"/></defs><g class="cls-14"><g id="Layer_2"><g id="Layer_1-2"><g><g><path class="cls-1" d="M60.14,62.62l24.23-25.85c2.27-2.42,2.27-6.33,0-8.75l-5.25-5.6L46.27,57.46l4.84,5.16c2.49,2.66,6.53,2.66,9.02,0Z"/><path class="cls-2" d="M79.12,42.38L46.28,7.35l5.15-5.49c2.32-2.48,6.09-2.48,8.41,0l24.54,26.17c2.27,2.42,2.27,6.33,0,8.75l-5.25,5.6Z"/><path class="cls-10" d="M79.12,42.38l-9.35-9.98-23.49,25.06,4.84,5.16c2.49,2.66,6.53,2.66,9.02,0l18.98-20.24Z"/><polygon class="cls-3" points="79.12 42.38 69.77 32.4 46.27 57.46 79.12 42.38"/><path class="cls-6" d="M21.09,57.46l-14.99-15.99c-4.7-5.01-4.7-13.13,0-18.14l.85-.91L39.79,57.46h0c-5.17,5.51-13.54,5.51-18.71,0Z"/><path class="cls-8" d="M6.95,42.38L39.79,7.35l-5.15-5.49c-2.32-2.48-6.09-2.48-8.41,0L1.7,28.03c-2.27,2.42-2.27,6.33,0,8.75l5.25,5.6Z"/><path class="cls-9" d="M6.95,42.38l9.35-9.98,23.49,25.06-4.84,5.16c-2.49,2.66-6.53,2.66-9.02,0L6.95,42.38Z"/><polygon class="cls-3" points="6.95 42.38 16.3 32.4 39.79 57.46 6.95 42.38"/><polygon class="cls-4" points="6.95 42.38 39.79 7.35 37.3 4.69 6.95 42.38"/><polygon class="cls-4" points="79.12 42.38 46.27 7.35 48.77 4.69 79.12 42.38"/><polygon class="cls-4" points="6.95 42.38 18.25 34.43 16.3 32.4 6.95 42.38"/><g><ellipse class="cls-5" cx="5.02" cy="32.4" rx="3.3" ry="3.52"/><ellipse class="cls-5" cx="80.69" cy="32.4" rx="3.3" ry="3.52"/></g><g><path class="cls-5" d="M5.02,28.88c-1.83,0-3.3,1.58-3.3,3.52,0,.17,.01,.33,.04,.49,.23-1.71,1.6-3.03,3.27-3.03s3.04,1.32,3.27,3.03c.02-.16,.04-.33,.04-.49,0-1.95-1.48-3.52-3.3-3.52Z"/><path class="cls-5" d="M80.69,29.87c1.67,0,3.04,1.32,3.27,3.03,.02-.16,.04-.33,.04-.49,0-1.95-1.48-3.52-3.3-3.52s-3.3,1.58-3.3,3.52c0,.17,.01,.33,.04,.49,.23-1.71,1.6-3.03,3.27-3.03Z"/></g></g><image width="565" height="403" transform="translate(27.75 26.8) scale(.03)" xlink:href="TCjit.png"/><path class="cls-13" d="M29.27,42.15c-.48-.35-.93-.73-1.36-1.16-2.16-2.15-3.36-5.02-3.36-8.07,0-3.05,1.18-5.92,3.33-8.09,2.15-2.16,5.02-3.36,8.07-3.36,3.05,0,5.92,1.18,8.09,3.33,.47,.47,.47,1.23,0,1.7-.47,.47-1.23,.47-1.7,0-1.71-1.7-3.98-2.64-6.39-2.63-2.41,0-4.67,.95-6.38,2.66-1.7,1.71-2.64,3.98-2.63,6.39,0,2.41,.95,4.68,2.66,6.38,1.71,1.7,3.98,2.64,6.39,2.63,2.41,0,4.68-.95,6.38-2.66,.47-.47,1.23-.47,1.7,0,.47,.47,.47,1.23,0,1.7-2.15,2.16-5.02,3.36-8.07,3.36-2.45,0-4.79-.76-6.73-2.17Z"/><g><g><path class="cls-11" d="M60.51,37.18c.22-.16,.43-.34,.63-.54,1-1,1.56-2.32,1.56-3.73,0-1.41-.55-2.74-1.54-3.74-1-1-2.33-1.55-3.74-1.55-1.41,0-2.75,.54-3.75,1.54-.22,.22-.22,.57,0,.78,.22,.22,.57,.22,.79,0,.79-.79,1.84-1.22,2.96-1.22,1.12,0,2.17,.44,2.96,1.23,.79,.79,1.22,1.84,1.22,2.95,0,1.12-.44,2.16-1.23,2.95-.79,.79-1.84,1.22-2.96,1.22-1.12,0-2.17-.44-2.96-1.23-.22-.22-.57-.22-.79,0-.22,.22-.22,.57,0,.79,1,1,2.33,1.55,3.74,1.55,1.14,0,2.22-.35,3.12-1Z"/><path class="cls-12" d="M59.22,35.39c.13-.09,.25-.2,.36-.31,1.2-1.19,1.2-3.13,0-4.33-.58-.58-1.35-.9-2.17-.9-.82,0-1.59,.32-2.17,.89-.22,.22-.22,.58,0,.8,.22,.22,.58,.22,.8,0,.37-.36,.85-.56,1.37-.56,.52,0,1,.2,1.37,.57,.75,.75,.75,1.98,0,2.73-.37,.36-.85,.56-1.37,.56-.52,0-1-.2-1.37-.57-.22-.22-.58-.22-.8,0-.22,.22-.22,.58,0,.8,.58,.58,1.35,.9,2.17,.9,.66,0,1.28-.2,1.8-.58Z"/></g><path class="cls-7" d="M50.03,37.84v-1.65h1.26l.7-.69v-2.25s-1.02,0-1.02,0c-.08,0-.15-.03-.2-.08l-1.63-1.63h-1.21v.56h-1.66v-1.65h1.66v.53h1.33c.08,0,.15,.03,.2,.08l1.63,1.63h1.98l-1.47-1.47c-.05-.05-.08-.12-.08-.2v-1.19s-.52,0-.52,0v-1.65h1.66v1.65h-.55v1.08s1.78,1.79,1.78,1.79h2.82c.12-.31,.42-.54,.77-.54,.46,0,.83,.37,.83,.82,0,.46-.37,.82-.83,.82-.36,0-.66-.23-.77-.54h-4.14v2.37c0,.07-.03,.15-.09,.2l-.79,.78v1.24h-1.66Z"/></g></g></g></g></g></svg>